<svg width="40" height="40" viewBox="0 0 40 40" fill="none" xmlns="http://www.w3.org/2000/svg">
<path d="M7.69244 33.3337C6.92536 33.3337 6.28487 33.0767 5.77099 32.5628C5.2571 32.0489 5.00015 31.4084 5.00015 30.6414V14.3593C5.00015 13.5922 5.2571 12.9517 5.77099 12.4378C6.28487 11.9239 6.92536 11.667 7.69244 11.667H15.0002V9.35928C15.0002 8.5922 15.2571 7.95171 15.771 7.43783C16.2849 6.92394 16.9254 6.66699 17.6924 6.66699H22.3079C23.0749 6.66699 23.7154 6.92394 24.2293 7.43783C24.7432 7.95171 25.0002 8.5922 25.0002 9.35928V11.667H32.3079C33.0749 11.667 33.7154 11.9239 34.2293 12.4378C34.7432 12.9517 35.0002 13.5922 35.0002 14.3593V30.6414C35.0002 31.4084 34.7432 32.0489 34.2293 32.5628C33.7154 33.0767 33.0749 33.3337 32.3079 33.3337H7.69244ZM7.69244 31.667H32.3079C32.5643 31.667 32.7993 31.5602 33.013 31.3465C33.2267 31.1328 33.3335 30.8978 33.3335 30.6414V14.3593C33.3335 14.1029 33.2267 13.8679 33.013 13.6542C32.7993 13.4405 32.5643 13.3337 32.3079 13.3337H7.69244C7.43606 13.3337 7.20101 13.4405 6.98732 13.6542C6.77365 13.8679 6.66682 14.1029 6.66682 14.3593V30.6414C6.66682 30.8978 6.77365 31.1328 6.98732 31.3465C7.20101 31.5602 7.43606 31.667 7.69244 31.667ZM16.6668 11.667H23.3335V9.35928C23.3335 9.10287 23.2267 8.86783 23.013 8.65416C22.7993 8.44049 22.5643 8.33366 22.3079 8.33366H17.6924C17.4361 8.33366 17.201 8.44049 16.9873 8.65416C16.7737 8.86783 16.6668 9.10287 16.6668 9.35928V11.667Z" fill="white"/>
</svg>
