<svg width="40" height="40" viewBox="0 0 40 40" fill="none" xmlns="http://www.w3.org/2000/svg">
<path d="M5 31.6665V29.1665H8.33333V11.0255C8.33333 10.2851 8.59696 9.65129 9.12421 9.12407C9.65143 8.59682 10.2852 8.33319 11.0256 8.33319H33.3333V9.99986H11.0256C10.7265 9.99986 10.4808 10.096 10.2885 10.2883C10.0962 10.4806 10 10.7263 10 11.0255V29.1665H19.1346V31.6665H5ZM25.0962 31.6665C24.7147 31.6665 24.395 31.5375 24.137 31.2795C23.879 31.0215 23.75 30.7018 23.75 30.3204V15.3204C23.75 14.9389 23.879 14.6192 24.137 14.3612C24.395 14.1032 24.7147 13.9742 25.0962 13.9742H33.6859C34.0673 13.9742 34.387 14.1032 34.645 14.3612C34.903 14.6192 35.032 14.9389 35.032 15.3204V30.3204C35.032 30.7018 34.903 31.0215 34.645 31.2795C34.387 31.5375 34.0673 31.6665 33.6859 31.6665H25.0962ZM25.4167 29.1665H33.3654V15.6409H25.4167V29.1665Z" fill="white"/>
</svg>
