<svg width="24" height="24" viewBox="0 0 24 24" fill="none" xmlns="http://www.w3.org/2000/svg">
<path d="M6.94048 5.01172C6.94011 5.82586 6.44608 6.55848 5.69134 6.86413C4.9366 7.16979 4.07187 6.98742 3.5049 6.40305C2.93793 5.81866 2.78195 4.94895 3.1105 4.20403C3.43906 3.4591 4.18654 2.98771 5.00048 3.01214C6.08155 3.04458 6.94097 3.93038 6.94048 5.01172ZM7.00048 8.49099H3.00048V21.0083H7.00048V8.49099ZM13.3205 8.49099H9.34048V21.0083H13.2805V14.4397C13.2805 10.7805 18.0505 10.4405 18.0505 14.4397V21.0083H22.0005V13.08C22.0005 6.91132 14.9405 7.14127 13.2805 10.1706L13.3205 8.49099Z" fill="white"/>
</svg>
